/* XPM */
static char * mlterm_32x32_xpm[] = {
"32 32 24 1",
" 	c None",
".	c #000000",
"+	c #FF0000",
"@	c #FF00FF",
"#	c #0000FF",
"$	c #00FFFF",
"%	c #00FF00",
"&	c #FFFF00",
"*	c #7F0000",
"=	c #7F007F",
"-	c #00007F",
";	c #007F7F",
">	c #007F00",
",	c #7F7F00",
"'	c #191919",
")	c #333333",
"!	c #4C4C4C",
"~	c #666667",
"{	c #7F7F7F",
"]	c #999999",
"^	c #B2B2B2",
"/	c #CCCCCC",
"(	c #E5E5E5",
"_	c #FFFFFF",
"                                ",
"                                ",
"________((((((((//////^^^^^^^^  ",
"________((((((((//////^^^^^^^^  ",
"__.........................~^^. ",
"__.!!!!!!!!!!!!!!!!!!!!!!!!_^^. ",
"__.!!!!!!!!!!#((###!!!!!!!!_^^. ",
"__.!!!!!!!!%((((((###!!!!!!_^^. ",
"__.!!!!!!!%%%%((%%%%##!!!!!_]]. ",
"__.!!!!!!%%%%%#(%%%%%##!!!!_]]. ",
"((.!!!!!!%%%######%%%%#!!!!_]]. ",
"((.!!!!!%%%%######%%%%##!!!_]]. ",
"((.!!!!!%%%%%%####((%%##!!!_]]. ",
"((.!!!!!%%%%%%#####(%%##!!!_]]. ",
"((.!!!!!##((########%%##!!!_]]. ",
"((.!!!!!##(#########%%##!!!_]]. ",
"((.!!!!!###%########%###!!!_]]. ",
"((.!!!!!!#######^^#####!!!!_]]. ",
"//.!!!!!!###%%#########!!!!_]]. ",
"//.!!!!!!!##%%%#######!!!!!_]]. ",
"//.!!!!!!!!######____!!!!!!_{{. ",
"//.!!!!!!!!!!______!!!!!!!!_{{. ",
"//.!!!!!!!!!!!!!!!!!!!!!!!!_{{. ",
"//~_________________________{{. ",
"^^^^^^^^^^^^^^^^]]]]%%%%{{{{{{. ",
"^^^^^^^^^^^^^^^^]]]]%%%%{{{{{{. ",
" .............................. ",
"          ~~~~~~~~~~~           ",
"          ///////////           ",
"      ___________________       ",
"      _//////////////////.      ",
"        ..................      "};
