/* XPM */
static char * mlterm_16x16_xpm[] = {
"16 16 11 1",
" 	c None",
".	c #FFFFFF",
"+	c #E5E5E5",
"@	c #CCCCCC",
"#	c #B2B2B2",
"$	c #000000",
"%	c #4C4C4C",
"&	c #0000FF",
"*	c #00FF00",
"=	c #999999",
"-	c #7F7F7F",
"                ",
"....++++@@@#### ",
".$$$$$$$$$$$$-#$",
".$%%%%++&&%%%.#$",
".$%%%**+**&%%.=$",
"+$%%**&&&**&%.=$",
"+$%%***&&+*&%.=$",
"+$%%&+&&&&*&%.=$",
"+$%%&&&&&&&&%.=$",
"@$%%%&*&&&&%%.=$",
"@$%%%%&&&&%%%.-$",
"@-............-$",
"########==**---$",
" $$$$$$$$$$$$$$$",
"   .........    ",
"    $$$$$$$$$   "};
