/* XPM */
static char * mlterm_48x48_xpm[] = {
"48 48 12 1",
" 	c None",
".	c #FFFFFF",
"+	c #E5E5E5",
"@	c #CCCCCC",
"#	c #B2B2B2",
"$	c #000000",
"%	c #666667",
"&	c #4C4C4C",
"*	c #0000FF",
"=	c #00FF00",
"-	c #999999",
";	c #7F7F7F",
"                                                ",
"                                                ",
"                                                ",
" ..........+.++++++++++@+@@@@@@@#@###########   ",
" .........+.+.++++++++@+@+@@@@@#@#@##########$  ",
" ..........+.++++++++++@+@@@@@@@#@###########$  ",
" ...$$$$$$$$$$$$$$$$$$$$$$$$$$$$$$$$$$$$$%###$  ",
" ...$&&&&&&&&&&&&&&&&&&&&&&&&&&&&&&&&&&&&.###$  ",
" ...$&&&&&&&&&&&&&&&&&&&&&&&&&&&&&&&&&&&&.###$  ",
" ...$&&&&&&&&&&&&&&**+++****&&&&&&&&&&&&&.###$  ",
" ...$&&&&&&&&&&&&=+++++++++***&&&&&&&&&&&.#-#$  ",
" ...$&&&&&&&&&&&==+++++++++****&&&&&&&&&&.-#-$  ",
" ...$&&&&&&&&&&======+++======**&&&&&&&&&.#-#$  ",
" .+.$&&&&&&&&&=======*++=======**&&&&&&&&.-#-$  ",
" +.+$&&&&&&&&========*++========**&&&&&&&.---$  ",
" .+.$&&&&&&&&=====*=*******======*&&&&&&&.---$  ",
" +.+$&&&&&&&======*********======**&&&&&&.---$  ",
" +++$&&&&&&&======*********======**&&&&&&.---$  ",
" +++$&&&&&&&=====**********+++===**&&&&&&.---$  ",
" +++$&&&&&&&====************++===**&&&&&&.---$  ",
" +++$&&&&&&&====*************+===**&&&&&&.---$  ",
" +++$&&&&&&&***+++************===**&&&&&&.---$  ",
" +++$&&&&&&&***+**************===**&&&&&&.---$  ",
" +++$&&&&&&&***+**************===**&&&&&&.---$  ",
" +++$&&&&&&&****==************==***&&&&&&.---$  ",
" +@+$&&&&&&&&***********###***==**&&&&&&&.---$  ",
" @+@$&&&&&&&&***********###***=***&&&&&&&.---$  ",
" +@+$&&&&&&&&&****===************&&&&&&&&.---$  ",
" @+@$&&&&&&&&&&***====**********&&&&&&&&&.-;-$  ",
" @@@$&&&&&&&&&&&**====*********&&&&&&&&&&.;-;$  ",
" @@@$&&&&&&&&&&&&********.....&&&&&&&&&&&.-;-$  ",
" @@@$&&&&&&&&&&&&&&.........&&&&&&&&&&&&&.;-;$  ",
" @@@$&&&&&&&&&&&&&&&&&&&&&&&&&&&&&&&&&&&&.;;;$  ",
" @@@$&&&&&&&&&&&&&&&&&&&&&&&&&&&&&&&&&&&&.;;;$  ",
" @#@$&&&&&&&&&&&&&&&&&&&&&&&&&&&&&&&&&&&&.;;;$  ",
" #@#;.....................................;;;$  ",
" @#@###################-#-------====;;;;;;;;;$  ",
" #@###################-#-#------====;;;;;;;;;$  ",
" ######################-#-------====;;;;;;;;;$  ",
"  $$$$$$$$$$$$$$$$$$$$$$$$$$$$$$$$$$$$$$$$$$$$  ",
"               %%%%%%%%%%%%%%%%                 ",
"               %%%%%%%%%%%%%%%%                 ",
"               @@@@@@@@@@@@@@@@                 ",
"         ............................           ",
"         .@@@@@@@@@@@@@@@@@@@@@@@@@@@           ",
"         .@@@@@@@@@@@@@@@@@@@@@@@@@@@$          ",
"           $$$$$$$$$$$$$$$$$$$$$$$$$$$          ",
"                                                "};
